# 3ds Max Wavefront OBJ Exporter v0.97b - (c)2007 guruware
# File Created: 01.05.2014 17:01:48

#
# object Drill
#

v  0.0000 0.0000 -0.0000
v  0.4755 0.9500 -0.1545
v  0.5000 0.9500 -0.0000
v  0.4045 0.9500 -0.2939
v  0.2939 0.9500 -0.4045
v  0.1545 0.9500 -0.4755
v  -0.0000 0.9500 -0.5000
v  -0.1545 0.9500 -0.4755
v  -0.2939 0.9500 -0.4045
v  -0.4045 0.9500 -0.2939
v  -0.4755 0.9500 -0.1545
v  -0.5000 0.9500 0.0000
v  -0.4755 0.9500 0.1545
v  -0.4045 0.9500 0.2939
v  -0.2939 0.9500 0.4045
v  -0.1545 0.9500 0.4755
v  0.0000 0.9500 0.5000
v  0.1545 0.9500 0.4755
v  0.2939 0.9500 0.4045
v  0.4045 0.9500 0.2939
v  0.4755 0.9500 0.1545
v  0.0000 0.9500 -0.0000
# 22 vertices

vn 1.0000 0.0000 -0.0000
vn 0.8764 -0.4612 -0.1388
vn 0.0000 0.0000 -0.0000
vn 0.7906 -0.4612 -0.4028
vn 0.6274 -0.4612 -0.6274
vn 0.4028 -0.4612 -0.7906
vn 0.1388 -0.4612 -0.8764
vn -0.1388 -0.4612 -0.8764
vn -0.4028 -0.4612 -0.7906
vn -0.6274 -0.4612 -0.6274
vn -0.7906 -0.4612 -0.4028
vn -0.8764 -0.4612 -0.1388
vn -0.8764 -0.4612 0.1388
vn -0.7906 -0.4612 0.4028
vn -0.6274 -0.4612 0.6274
vn -0.4028 -0.4612 0.7906
vn -0.1388 -0.4612 0.8764
vn 0.1388 -0.4612 0.8764
vn 0.4028 -0.4612 0.7906
vn 0.6274 -0.4612 0.6274
vn 0.7906 -0.4612 0.4028
vn 0.8764 -0.4612 0.1388
vn 0.0000 1.0000 -0.0000
# 23 vertex normals

vt 0.0020 0.9922 0.0000
vt 0.0038 0.9916 0.0000
vt 0.0039 0.9922 0.0000
vt 0.0035 0.9911 0.0000
vt 0.0031 0.9906 0.0000
vt 0.0026 0.9904 0.0000
vt 0.0020 0.9903 0.0000
vt 0.0014 0.9904 0.0000
vt 0.0008 0.9906 0.0000
vt 0.0004 0.9911 0.0000
vt 0.0001 0.9916 0.0000
vt 0.0000 0.9922 0.0000
vt 0.0001 0.9928 0.0000
vt 0.0004 0.9933 0.0000
vt 0.0008 0.9938 0.0000
vt 0.0014 0.9940 0.0000
vt 0.0020 0.9941 0.0000
vt 0.0026 0.9940 0.0000
vt 0.0031 0.9938 0.0000
vt 0.0035 0.9933 0.0000
vt 0.0038 0.9928 0.0000
vt 0.5000 1.0000 0.0000
vt 0.8000 0.0000 0.0000
vt 0.8500 0.0000 0.0000
vt 0.7500 0.0000 0.0000
vt 0.7000 0.0000 0.0000
vt 0.6500 0.0000 0.0000
vt 0.6000 0.0000 0.0000
vt 0.5500 0.0000 0.0000
vt 0.5000 0.0000 0.0000
vt 0.4500 -0.0000 0.0000
vt 0.5000 -0.0000 0.0000
vt 0.4000 0.0000 0.0000
vt 0.4500 0.0000 0.0000
vt 0.3500 0.0000 0.0000
vt 0.3000 0.0000 0.0000
vt 0.2500 0.0000 0.0000
vt 0.2000 0.0000 0.0000
vt 0.1500 0.0000 0.0000
vt 0.1000 0.0000 0.0000
vt 0.0500 0.0000 0.0000
vt 0.0000 0.0001 0.0000
vt 0.9500 0.0000 0.0000
vt 1.0000 0.0001 0.0000
vt 0.9000 0.0000 0.0000
vt 0.0020 0.9921 0.0000
vt 0.0017 0.9997 0.0000
vt 0.0023 0.9997 0.0000
vt 0.0029 0.9989 0.0000
vt 0.0033 0.9975 0.0000
vt 0.0037 0.9955 0.0000
vt 0.0039 0.9932 0.0000
vt 0.0039 0.9908 0.0000
vt 0.0037 0.9885 0.0000
vt 0.0033 0.9866 0.0000
vt 0.0028 0.9852 0.0000
vt 0.0023 0.9845 0.0000
vt 0.0017 0.9846 0.0000
vt 0.0011 0.9854 0.0000
vt 0.0006 0.9868 0.0000
vt 0.0003 0.9888 0.0000
vt 0.0001 0.9911 0.0000
vt 0.0001 0.9935 0.0000
vt 0.0003 0.9957 0.0000
vt 0.0006 0.9976 0.0000
vt 0.0011 0.9990 0.0000
# 66 texture coords

g Drill
s 1
f 1/1/1 1/2/1 1/3/1 
f 1/1/1 1/4/1 1/2/1 
f 1/1/1 1/5/1 1/4/1 
f 1/1/1 1/6/1 1/5/1 
f 1/1/1 1/7/1 1/6/1 
f 1/1/1 1/8/1 1/7/1 
f 1/1/1 1/9/1 1/8/1 
f 1/1/1 1/10/1 1/9/1 
f 1/1/1 1/11/1 1/10/1 
f 1/1/1 1/12/1 1/11/1 
f 1/1/1 1/13/1 1/12/1 
f 1/1/1 1/14/1 1/13/1 
f 1/1/1 1/15/1 1/14/1 
f 1/1/1 1/16/1 1/15/1 
f 1/1/1 1/17/1 1/16/1 
f 1/1/1 1/18/1 1/17/1 
f 1/1/1 1/19/1 1/18/1 
f 1/1/1 1/20/1 1/19/1 
f 1/1/1 1/21/1 1/20/1 
f 1/1/1 1/3/1 1/21/1 
s off
f 1/22/2 2/23/2 3/24/2 
f 1/22/3 1/22/3 2/23/3 
f 1/22/4 4/25/4 2/23/4 
f 1/22/3 1/22/3 4/25/3 
f 1/22/5 5/26/5 4/25/5 
f 1/22/3 1/22/3 5/26/3 
f 1/22/6 6/27/6 5/26/6 
f 1/22/3 1/22/3 6/27/3 
f 1/22/7 7/28/7 6/27/7 
f 1/22/3 1/22/3 7/28/3 
f 1/22/8 8/29/8 7/28/8 
f 1/22/3 1/22/3 8/29/3 
f 1/22/9 9/30/9 8/29/9 
f 1/22/3 1/22/3 9/30/3 
f 1/22/10 10/31/10 9/32/10 
f 1/22/3 1/22/3 10/31/3 
f 1/22/11 11/33/11 10/34/11 
f 1/22/3 1/22/3 11/33/3 
f 1/22/12 12/35/12 11/33/12 
f 1/22/3 1/22/3 12/35/3 
f 1/22/13 13/36/13 12/35/13 
f 1/22/3 1/22/3 13/36/3 
f 1/22/14 14/37/14 13/36/14 
f 1/22/3 1/22/3 14/37/3 
f 1/22/15 15/38/15 14/37/15 
f 1/22/3 1/22/3 15/38/3 
f 1/22/16 16/39/16 15/38/16 
f 1/22/3 1/22/3 16/39/3 
f 1/22/17 17/40/17 16/39/17 
f 1/22/3 1/22/3 17/40/3 
f 1/22/18 18/41/18 17/40/18 
f 1/22/3 1/22/3 18/41/3 
f 1/22/19 19/42/19 18/41/19 
f 1/22/3 1/22/3 19/42/3 
f 1/22/20 20/43/20 19/44/20 
f 1/22/3 1/22/3 20/43/3 
f 1/22/21 21/45/21 20/43/21 
f 1/22/3 1/22/3 21/45/3 
f 1/22/22 3/24/22 21/45/22 
f 1/22/3 1/22/3 3/24/3 
s 1
f 22/46/23 3/47/23 2/48/23 
f 22/46/23 2/48/23 4/49/23 
f 22/46/23 4/49/23 5/50/23 
f 22/46/23 5/50/23 6/51/23 
f 22/46/23 6/51/23 7/52/23 
f 22/46/23 7/52/23 8/53/23 
f 22/46/23 8/53/23 9/54/23 
f 22/46/23 9/54/23 10/55/23 
f 22/46/23 10/55/23 11/56/23 
f 22/46/23 11/56/23 12/57/23 
f 22/46/23 12/57/23 13/58/23 
f 22/46/23 13/58/23 14/59/23 
f 22/46/23 14/59/23 15/60/23 
f 22/46/23 15/60/23 16/61/23 
f 22/46/23 16/61/23 17/62/23 
f 22/46/23 17/62/23 18/63/23 
f 22/46/23 18/63/23 19/64/23 
f 22/46/23 19/64/23 20/65/23 
f 22/46/23 20/65/23 21/66/23 
f 22/46/23 21/66/23 3/47/23 
# 80 faces

#
# object Top
#

v  -0.5000 0.9500 0.5000
v  -0.5000 0.9500 -0.5000
v  0.5000 0.9500 -0.5000
v  0.5000 0.9500 0.5000
v  -0.5000 1.0000 0.5000
v  0.5000 1.0000 0.5000
v  0.5000 1.0000 -0.5000
v  -0.5000 1.0000 -0.5000
# 8 vertices

vn 0.0000 -1.0000 -0.0000
vn 0.0000 1.0000 -0.0000
vn 0.0000 0.0000 1.0000
vn 1.0000 0.0000 -0.0000
vn 0.0000 0.0000 -1.0000
vn -1.0000 0.0000 -0.0000
# 6 vertex normals

vt 0.5000 1.0000 0.0000
vt 0.5000 0.3906 0.0000
vt 1.0000 0.3906 0.0000
vt 1.0000 1.0000 0.0000
vt 0.0000 0.3906 0.0000
vt 0.0000 1.0000 0.0000
vt 1.0000 0.3281 0.0000
vt 0.0000 0.3281 0.0000
# 8 texture coords

g Top
s 2
f 23/67/24 24/68/24 25/69/24 
f 25/69/24 26/70/24 23/67/24 
s 4
f 27/71/25 28/68/25 29/67/25 
f 29/67/25 30/72/25 27/71/25 
s 8
f 23/73/26 26/69/26 28/71/26 
f 28/71/26 27/74/26 23/73/26 
s 16
f 26/73/27 25/69/27 29/71/27 
f 29/71/27 28/74/27 26/73/27 
s 32
f 25/73/28 24/69/28 30/71/28 
f 30/71/28 29/74/28 25/73/28 
s 64
f 24/73/29 23/69/29 27/71/29 
f 27/71/29 30/74/29 24/73/29 
# 12 faces

#
# object Base002
#

v  -0.4250 0.0000 -0.4250
v  -0.4250 0.0000 -0.5000
v  0.4250 0.0000 -0.5000
v  0.4250 0.0000 -0.4250
v  -0.4250 0.0500 -0.4250
v  0.4250 0.0500 -0.4250
v  0.4250 0.0500 -0.5000
v  -0.4250 0.0500 -0.5000
# 8 vertices

vn 0.0000 -1.0000 -0.0000
vn 0.0000 1.0000 -0.0000
vn 0.0000 0.0000 1.0000
vn 1.0000 0.0000 -0.0000
vn 0.0000 0.0000 -1.0000
vn -1.0000 0.0000 -0.0000
# 6 vertex normals

vt 0.0000 0.1094 0.0000
vt 1.0000 0.1094 0.0000
vt 1.0000 0.2188 0.0000
vt 0.0000 0.2188 0.0000
vt 0.0574 0.9027 0.0000
vt 0.0574 0.9892 0.0000
vt -0.0002 0.9892 0.0000
vt -0.0002 0.9027 0.0000
vt 0.0589 0.9031 0.0000
vt 0.0589 0.9895 0.0000
vt 0.0012 0.9895 0.0000
vt 0.0012 0.9031 0.0000
# 12 texture coords

g Base002
s 2
f 31/75/30 32/76/30 33/77/30 
f 33/77/30 34/78/30 31/75/30 
s 4
f 35/76/31 36/77/31 37/78/31 
f 37/78/31 38/75/31 35/76/31 
s 8
f 31/76/32 34/77/32 36/78/32 
f 36/78/32 35/75/32 31/76/32 
s 16
f 34/79/33 33/80/33 37/81/33 
f 37/81/33 36/82/33 34/79/33 
s 32
f 33/76/34 32/77/34 38/78/34 
f 38/78/34 37/75/34 33/76/34 
s 64
f 32/83/35 31/84/35 35/85/35 
f 35/85/35 38/86/35 32/83/35 
# 12 faces

#
# object Base001
#

v  -0.4250 0.0000 0.5000
v  -0.4250 0.0000 0.4250
v  0.4250 0.0000 0.4250
v  0.4250 0.0000 0.5000
v  -0.4250 0.0500 0.5000
v  0.4250 0.0500 0.5000
v  0.4250 0.0500 0.4250
v  -0.4250 0.0500 0.4250
# 8 vertices

vn 0.0000 -1.0000 -0.0000
vn 0.0000 1.0000 -0.0000
vn 0.0000 0.0000 1.0000
vn 1.0000 0.0000 -0.0000
vn 0.0000 0.0000 -1.0000
vn -1.0000 0.0000 -0.0000
# 6 vertex normals

vt 0.0000 0.1094 0.0000
vt 1.0000 0.1094 0.0000
vt 1.0000 0.2188 0.0000
vt 0.0000 0.2188 0.0000
vt 0.0574 0.9027 0.0000
vt 0.0574 0.9892 0.0000
vt -0.0002 0.9892 0.0000
vt -0.0002 0.9027 0.0000
vt 0.0589 0.9031 0.0000
vt 0.0589 0.9895 0.0000
vt 0.0012 0.9895 0.0000
vt 0.0012 0.9031 0.0000
# 12 texture coords

g Base001
s 2
f 39/87/36 40/88/36 41/89/36 
f 41/89/36 42/90/36 39/87/36 
s 4
f 43/88/37 44/89/37 45/90/37 
f 45/90/37 46/87/37 43/88/37 
s 8
f 39/88/38 42/89/38 44/90/38 
f 44/90/38 43/87/38 39/88/38 
s 16
f 42/91/39 41/92/39 45/93/39 
f 45/93/39 44/94/39 42/91/39 
s 32
f 41/88/40 40/89/40 46/90/40 
f 46/90/40 45/87/40 41/88/40 
s 64
f 40/95/41 39/96/41 43/97/41 
f 43/97/41 46/98/41 40/95/41 
# 12 faces

#
# object Base004
#

v  -0.5000 0.0000 0.4250
v  -0.5000 0.0000 -0.4250
v  -0.4250 0.0000 -0.4250
v  -0.4250 0.0000 0.4250
v  -0.5000 0.0500 0.4250
v  -0.4250 0.0500 0.4250
v  -0.4250 0.0500 -0.4250
v  -0.5000 0.0500 -0.4250
# 8 vertices

vn 0.0000 -1.0000 -0.0000
vn 0.0000 1.0000 -0.0000
vn 0.0000 0.0000 1.0000
vn 1.0000 0.0000 -0.0000
vn 0.0000 0.0000 -1.0000
vn -1.0000 0.0000 -0.0000
# 6 vertex normals

vt 1.0000 0.3281 0.0000
vt 0.0000 0.3281 0.0000
vt 0.0000 0.2188 0.0000
vt 1.0000 0.2188 0.0000
vt 0.0782 0.8945 0.0000
vt 0.0218 0.8945 0.0000
vt 0.0218 0.8620 0.0000
vt 0.0782 0.8620 0.0000
vt 0.0782 0.8931 0.0000
vt 0.0218 0.8931 0.0000
vt 0.0218 0.8605 0.0000
vt 0.0782 0.8605 0.0000
# 12 texture coords

g Base004
s 2
f 47/99/42 48/100/42 49/101/42 
f 49/101/42 50/102/42 47/99/42 
s 4
f 51/100/43 52/101/43 53/102/43 
f 53/102/43 54/99/43 51/100/43 
s 8
f 47/103/44 50/104/44 52/105/44 
f 52/105/44 51/106/44 47/103/44 
s 16
f 50/99/45 49/100/45 53/101/45 
f 53/101/45 52/102/45 50/99/45 
s 32
f 49/107/46 48/108/46 54/109/46 
f 54/109/46 53/110/46 49/107/46 
s 64
f 48/99/47 47/100/47 51/101/47 
f 51/101/47 54/102/47 48/99/47 
# 12 faces

#
# object Base003
#

v  0.4247 0.0000 0.4250
v  0.4247 0.0000 -0.4250
v  0.4997 0.0000 -0.4250
v  0.4997 0.0000 0.4250
v  0.4247 0.0500 0.4250
v  0.4997 0.0500 0.4250
v  0.4997 0.0500 -0.4250
v  0.4247 0.0500 -0.4250
# 8 vertices

vn 0.0000 -1.0000 -0.0000
vn 0.0000 1.0000 -0.0000
vn 0.0000 0.0000 1.0000
vn 1.0000 0.0000 -0.0000
vn 0.0000 0.0000 -1.0000
vn -1.0000 0.0000 -0.0000
# 6 vertex normals

vt 1.0000 0.3281 0.0000
vt 0.0000 0.3281 0.0000
vt 0.0000 0.2188 0.0000
vt 1.0000 0.2188 0.0000
vt 0.0782 0.8945 0.0000
vt 0.0218 0.8945 0.0000
vt 0.0218 0.8620 0.0000
vt 0.0782 0.8620 0.0000
vt 0.0782 0.8931 0.0000
vt 0.0218 0.8931 0.0000
vt 0.0218 0.8605 0.0000
vt 0.0782 0.8605 0.0000
# 12 texture coords

g Base003
s 2
f 55/111/48 56/112/48 57/113/48 
f 57/113/48 58/114/48 55/111/48 
s 4
f 59/112/49 60/113/49 61/114/49 
f 61/114/49 62/111/49 59/112/49 
s 8
f 55/115/50 58/116/50 60/117/50 
f 60/117/50 59/118/50 55/115/50 
s 16
f 58/111/51 57/112/51 61/113/51 
f 61/113/51 60/114/51 58/111/51 
s 32
f 57/119/52 56/120/52 62/121/52 
f 62/121/52 61/122/52 57/119/52 
s 64
f 56/111/53 55/112/53 59/113/53 
f 59/113/53 62/114/53 56/111/53 
# 12 faces

#
# object Pillar001
#

v  0.4250 0.0000 -0.4255
v  0.4250 0.0000 -0.5005
v  0.5000 0.0000 -0.5005
v  0.5000 0.0000 -0.4255
v  0.4250 0.9500 -0.4255
v  0.5000 0.9500 -0.4255
v  0.5000 0.9500 -0.5005
v  0.4250 0.9500 -0.5005
# 8 vertices

vn 0.0000 -1.0000 -0.0000
vn 0.0000 1.0000 -0.0000
vn 0.0000 0.0000 1.0000
vn 1.0000 0.0000 -0.0000
vn 0.0000 0.0000 -1.0000
vn -1.0000 0.0000 -0.0000
# 6 vertex normals

vt 0.9728 0.2177 0.0000
vt 0.9997 0.2179 0.0000
vt 0.9997 0.1099 0.0000
vt 0.9998 0.3278 0.0000
vt 0.9727 0.3276 0.0000
vt 0.9999 0.2190 0.0000
vt 0.0005 0.8987 0.0000
vt 0.0505 0.8987 0.0000
vt 0.0505 0.9987 0.0000
vt 0.0005 0.9987 0.0000
vt 0.5000 0.1090 0.0000
vt 0.5000 0.0000 0.0000
vt 1.0000 0.0000 0.0000
vt 1.0000 0.1090 0.0000
# 14 texture coords

g Pillar001
s 2
f 63/123/54 64/124/54 65/125/54 
f 65/126/54 66/127/54 63/128/54 
s 4
f 67/129/55 68/130/55 69/131/55 
f 69/131/55 70/132/55 67/129/55 
s 8
f 63/133/56 66/134/56 68/135/56 
f 68/135/56 67/136/56 63/133/56 
s 16
f 66/133/57 65/134/57 69/135/57 
f 69/135/57 68/136/57 66/133/57 
s 32
f 65/133/58 64/134/58 70/135/58 
f 70/135/58 69/136/58 65/133/58 
s 64
f 64/133/59 63/134/59 67/135/59 
f 67/135/59 70/136/59 64/133/59 
# 12 faces

#
# object Pillar002
#

v  -0.5001 0.0000 -0.5009
v  -0.4251 0.0000 -0.5001
v  -0.4259 0.0000 -0.4251
v  -0.5009 0.0000 -0.4259
v  -0.5001 0.9500 -0.5009
v  -0.5009 0.9500 -0.4259
v  -0.4259 0.9500 -0.4251
v  -0.4251 0.9500 -0.5001
# 8 vertices

vn 0.0000 -1.0000 -0.0000
vn 0.0000 1.0000 -0.0000
vn -0.9999 0.0000 -0.0105
vn -0.0105 0.0000 0.9999
vn 0.9999 0.0000 0.0105
vn 0.0105 0.0000 -0.9999
# 6 vertex normals

vt 0.9723 0.2164 0.0000
vt 0.9983 0.2162 0.0000
vt 0.9982 0.1119 0.0000
vt 0.9990 0.3258 0.0000
vt 0.9990 0.2211 0.0000
vt 0.9728 0.3258 0.0000
vt 0.0005 0.8987 0.0000
vt 0.0505 0.8987 0.0000
vt 0.0505 0.9987 0.0000
vt 0.0005 0.9987 0.0000
vt 0.5000 0.1090 0.0000
vt 0.5000 0.0000 0.0000
vt 1.0000 0.0000 0.0000
vt 1.0000 0.1090 0.0000
# 14 texture coords

g Pillar002
s 2
f 71/137/60 72/138/60 73/139/60 
f 73/140/60 74/141/60 71/142/60 
s 4
f 75/143/61 76/144/61 77/145/61 
f 77/145/61 78/146/61 75/143/61 
s 8
f 71/147/62 74/148/62 76/149/62 
f 76/149/62 75/150/62 71/147/62 
s 16
f 74/147/63 73/148/63 77/149/63 
f 77/149/63 76/150/63 74/147/63 
s 32
f 73/147/64 72/148/64 78/149/64 
f 78/149/64 77/150/64 73/147/64 
s 64
f 72/147/65 71/148/65 75/149/65 
f 75/149/65 78/150/65 72/147/65 
# 12 faces

#
# object Pillar003
#

v  -0.5005 0.0000 0.5005
v  -0.5005 0.0000 0.4255
v  -0.4255 0.0000 0.4255
v  -0.4255 0.0000 0.5005
v  -0.5005 0.9500 0.5005
v  -0.4255 0.9500 0.5005
v  -0.4255 0.9500 0.4255
v  -0.5005 0.9500 0.4255
# 8 vertices

vn 0.0000 -1.0000 -0.0000
vn 0.0000 1.0000 -0.0000
vn 0.0000 0.0000 1.0000
vn 1.0000 0.0000 -0.0000
vn 0.0000 0.0000 -1.0000
vn -1.0000 0.0000 -0.0000
# 6 vertex normals

vt 0.9723 0.3271 0.0000
vt 0.9992 0.3273 0.0000
vt 0.9993 0.2193 0.0000
vt 1.0001 0.2184 0.0000
vt 0.9730 0.2182 0.0000
vt 1.0001 0.1096 0.0000
vt 0.0005 0.8987 0.0000
vt 0.0505 0.8987 0.0000
vt 0.0505 0.9987 0.0000
vt 0.0005 0.9987 0.0000
vt 0.0000 0.1090 0.0000
vt 0.0000 0.0000 0.0000
vt 1.0000 0.0000 0.0000
vt 1.0000 0.1090 0.0000
# 14 texture coords

g Pillar003
s 2
f 79/151/66 80/152/66 81/153/66 
f 81/154/66 82/155/66 79/156/66 
s 4
f 83/157/67 84/158/67 85/159/67 
f 85/159/67 86/160/67 83/157/67 
s 8
f 79/161/68 82/162/68 84/163/68 
f 84/163/68 83/164/68 79/161/68 
s 16
f 82/161/69 81/162/69 85/163/69 
f 85/163/69 84/164/69 82/161/69 
s 32
f 81/161/70 80/162/70 86/163/70 
f 86/163/70 85/164/70 81/161/70 
s 64
f 80/161/71 79/162/71 83/163/71 
f 83/163/71 86/164/71 80/161/71 
# 12 faces

#
# object Pillar004
#

v  0.4262 0.0000 0.4248
v  0.5012 0.0000 0.4262
v  0.4998 0.0000 0.5012
v  0.4248 0.0000 0.4998
v  0.4262 0.9500 0.4248
v  0.4248 0.9500 0.4998
v  0.4998 0.9500 0.5012
v  0.5012 0.9500 0.4262
# 8 vertices

vn 0.0000 -1.0000 -0.0000
vn 0.0000 1.0000 -0.0000
vn -0.9998 0.0000 -0.0189
vn -0.0189 0.0000 0.9998
vn 0.9998 0.0000 0.0189
vn 0.0189 0.0000 -0.9998
# 6 vertex normals

vt 0.9725 0.3271 0.0000
vt 0.9994 0.3273 0.0000
vt 0.9995 0.2193 0.0000
vt 0.9996 0.2184 0.0000
vt 0.9725 0.2182 0.0000
vt 0.9997 0.1096 0.0000
vt 0.0005 0.8987 0.0000
vt 0.0505 0.8987 0.0000
vt 0.0505 0.9987 0.0000
vt 0.0005 0.9987 0.0000
vt 0.5000 0.1090 0.0000
vt 0.5000 0.0000 0.0000
vt 1.0000 0.0000 0.0000
vt 1.0000 0.1090 0.0000
# 14 texture coords

g Pillar004
s 2
f 87/165/72 88/166/72 89/167/72 
f 89/168/72 90/169/72 87/170/72 
s 4
f 91/171/73 92/172/73 93/173/73 
f 93/173/73 94/174/73 91/171/73 
s 8
f 87/175/74 90/176/74 92/177/74 
f 92/177/74 91/178/74 87/175/74 
s 16
f 90/175/75 89/176/75 93/177/75 
f 93/177/75 92/178/75 90/175/75 
s 32
f 89/175/76 88/176/76 94/177/76 
f 94/177/76 93/178/76 89/175/76 
s 64
f 88/175/77 87/176/77 91/177/77 
f 91/177/77 94/178/77 88/175/77 
# 12 faces

