# 3ds Max Wavefront OBJ Exporter v0.97b - (c)2007 guruware
# File Created: 04.11.2013 09:00:38

#
# object Box001
#

v  0.0000 0.0000 -0.0000
v  0.0000 0.0000 -1.0000
v  1.0000 0.0000 -1.0000
v  1.0000 0.0000 -0.0000
v  0.0000 0.8000 -0.0000
v  1.0000 0.8000 -0.0000
v  1.0000 0.8000 -1.0000
v  0.0000 0.8000 -1.0000
# 8 vertices

vn 0.0000 -1.0000 -0.0000
vn 0.0000 1.0000 -0.0000
vn 0.0000 0.0000 1.0000
vn 1.0000 0.0000 -0.0000
vn 0.0000 0.0000 -1.0000
vn -1.0000 0.0000 -0.0000
# 6 vertex normals

vt 1.0000 0.5000 0.0000
vt 1.0000 1.0000 0.0000
vt 0.7500 1.0000 0.0000
vt 0.7500 0.5000 0.0000
vt 0.7500 0.0000 0.0100
vt 1.0000 -0.0000 0.0100
vt 0.7500 0.5000 0.0100
vt 0.5000 -0.0000 0.0000
vt 0.7500 -0.0000 0.0000
vt 0.5000 0.5000 0.0000
# 10 texture coords

g Box001
s 2
f 1/1/1 2/2/1 3/3/1 
f 3/3/1 4/4/1 1/1/1 
s 4
f 5/4/2 6/1/2 7/2/2 
f 7/2/2 8/3/2 5/4/2 
s 8
f 1/5/3 4/6/3 6/1/3 
f 6/1/3 5/7/3 1/5/3 
s 16
f 4/8/4 3/9/4 7/4/4 
f 7/4/4 6/10/4 4/8/4 
s 32
f 3/5/5 2/6/5 8/1/5 
f 8/1/5 7/7/5 3/5/5 
s 64
f 2/8/6 1/9/6 5/4/6 
f 5/4/6 8/10/6 2/8/6 
# 12 faces

#
# object Cylinder001
#

v  0.5000 0.8500 -0.5000
v  0.7349 0.8500 -0.5855
v  0.7500 0.8500 -0.5000
v  0.6915 0.8500 -0.6607
v  0.6250 0.8500 -0.7165
v  0.5434 0.8500 -0.7462
v  0.4566 0.8500 -0.7462
v  0.3750 0.8500 -0.7165
v  0.3085 0.8500 -0.6607
v  0.2651 0.8500 -0.5855
v  0.2500 0.8500 -0.5000
v  0.2651 0.8500 -0.4145
v  0.3085 0.8500 -0.3393
v  0.3750 0.8500 -0.2835
v  0.4566 0.8500 -0.2538
v  0.5434 0.8500 -0.2538
v  0.6250 0.8500 -0.2835
v  0.6915 0.8500 -0.3393
v  0.7349 0.8500 -0.4145
v  0.7349 0.9500 -0.5855
v  0.7500 0.9500 -0.5000
v  0.6915 0.9500 -0.6607
v  0.6250 0.9500 -0.7165
v  0.5434 0.9500 -0.7462
v  0.4566 0.9500 -0.7462
v  0.3750 0.9500 -0.7165
v  0.3085 0.9500 -0.6607
v  0.2651 0.9500 -0.5855
v  0.2500 0.9500 -0.5000
v  0.2651 0.9500 -0.4145
v  0.3085 0.9500 -0.3393
v  0.3750 0.9500 -0.2835
v  0.4566 0.9500 -0.2538
v  0.5434 0.9500 -0.2538
v  0.6250 0.9500 -0.2835
v  0.6915 0.9500 -0.3393
v  0.7349 0.9500 -0.4145
v  0.5000 0.9500 -0.5000
# 38 vertices

vn 0.0000 -1.0000 -0.0000
vn 1.0000 0.0000 0.0000
vn 0.9397 0.0000 -0.3420
vn 0.7660 0.0000 -0.6428
vn 0.5000 0.0000 -0.8660
vn 0.1736 0.0000 -0.9848
vn -0.1736 0.0000 -0.9848
vn -0.5000 0.0000 -0.8660
vn -0.7660 0.0000 -0.6428
vn -0.9397 0.0000 -0.3420
vn -1.0000 0.0000 -0.0000
vn -0.9397 0.0000 0.3420
vn -0.7660 0.0000 0.6428
vn -0.5000 0.0000 0.8660
vn -0.1736 0.0000 0.9848
vn 0.1736 0.0000 0.9848
vn 0.5000 0.0000 0.8660
vn 0.7660 0.0000 0.6428
vn 0.9397 0.0000 0.3420
vn 0.0000 1.0000 -0.0000
# 20 vertex normals

vt 0.7664 0.7649 0.0000
vt 0.9764 0.6884 0.0000
vt 0.9899 0.7649 0.0000
vt 0.9376 0.6212 0.0000
vt 0.8781 0.5713 0.0000
vt 0.8052 0.5448 0.0000
vt 0.7276 0.5448 0.0000
vt 0.6546 0.5713 0.0000
vt 0.5952 0.6212 0.0000
vt 0.5564 0.6884 0.0000
vt 0.5429 0.7649 0.0000
vt 0.5564 0.8413 0.0000
vt 0.5952 0.9085 0.0000
vt 0.6546 0.9584 0.0000
vt 0.7276 0.9850 0.0000
vt 0.8052 0.9850 0.0000
vt 0.8781 0.9584 0.0000
vt 0.9376 0.9085 0.0000
vt 0.9764 0.8413 0.0000
vt 0.0000 0.0000 0.0000
vt 0.0556 0.0640 0.0000
vt 0.0000 0.0640 0.0000
vt 0.0556 0.0000 0.0000
vt 0.1111 0.0640 0.0000
vt 0.1111 0.0000 0.0000
vt 0.1667 0.0640 0.0000
vt 0.1667 0.0000 0.0000
vt 0.2222 0.0640 0.0000
vt 0.2222 0.0000 0.0000
vt 0.2778 0.0640 0.0000
vt 0.2778 0.0000 0.0000
vt 0.3333 0.0640 0.0000
vt 0.3333 0.0000 0.0000
vt 0.3889 0.0640 0.0000
vt 0.3889 0.0000 0.0000
vt 0.4444 0.0640 0.0000
vt 0.4444 0.0000 0.0000
vt 0.5000 0.0640 0.0000
vt 0.5000 0.0000 0.0000
vt 0.5556 0.0640 0.0000
vt 0.5556 0.0000 0.0000
vt 0.6111 0.0640 0.0000
vt 0.6111 0.0000 0.0000
vt 0.6667 0.0640 0.0000
vt 0.6667 0.0000 0.0000
vt 0.7222 0.0640 0.0000
vt 0.7222 0.0000 0.0000
vt 0.7778 0.0640 0.0000
vt 0.7778 0.0000 0.0000
vt 0.8333 0.0640 0.0000
vt 0.8333 0.0000 0.0000
vt 0.8889 0.0640 0.0000
vt 0.8889 0.0000 0.0000
vt 0.9444 0.0640 0.0000
vt 0.9444 0.0000 0.0000
vt 1.0000 0.0640 0.0000
vt 1.0000 0.0000 0.0000
vt 0.7641 0.7635 0.0000
vt 0.9899 0.7635 0.0000
vt 0.9762 0.8407 0.0000
vt 0.9370 0.9086 0.0000
vt 0.8770 0.9590 0.0000
vt 0.8033 0.9858 0.0000
vt 0.7249 0.9858 0.0000
vt 0.6512 0.9590 0.0000
vt 0.5912 0.9086 0.0000
vt 0.5520 0.8407 0.0000
vt 0.5384 0.7635 0.0000
vt 0.5520 0.6863 0.0000
vt 0.5912 0.6184 0.0000
vt 0.6512 0.5680 0.0000
vt 0.7249 0.5412 0.0000
vt 0.8033 0.5412 0.0000
vt 0.8770 0.5680 0.0000
vt 0.9370 0.6184 0.0000
vt 0.9762 0.6863 0.0000
# 76 texture coords

g Cylinder001
s 1
f 9/11/7 10/12/7 11/13/7 
f 9/11/7 12/14/7 10/12/7 
f 9/11/7 13/15/7 12/14/7 
f 9/11/7 14/16/7 13/15/7 
f 9/11/7 15/17/7 14/16/7 
f 9/11/7 16/18/7 15/17/7 
f 9/11/7 17/19/7 16/18/7 
f 9/11/7 18/20/7 17/19/7 
f 9/11/7 19/21/7 18/20/7 
f 9/11/7 20/22/7 19/21/7 
f 9/11/7 21/23/7 20/22/7 
f 9/11/7 22/24/7 21/23/7 
f 9/11/7 23/25/7 22/24/7 
f 9/11/7 24/26/7 23/25/7 
f 9/11/7 25/27/7 24/26/7 
f 9/11/7 26/28/7 25/27/7 
f 9/11/7 27/29/7 26/28/7 
f 9/11/7 11/13/7 27/29/7 
s 8
f 11/30/8 28/31/9 29/32/8 
f 11/30/8 10/33/9 28/31/9 
f 10/33/9 30/34/10 28/31/9 
f 10/33/9 12/35/10 30/34/10 
f 12/35/10 31/36/11 30/34/10 
f 12/35/10 13/37/11 31/36/11 
f 13/37/11 32/38/12 31/36/11 
f 13/37/11 14/39/12 32/38/12 
f 14/39/12 33/40/13 32/38/12 
f 14/39/12 15/41/13 33/40/13 
f 15/41/13 34/42/14 33/40/13 
f 15/41/13 16/43/14 34/42/14 
f 16/43/14 35/44/15 34/42/14 
f 16/43/14 17/45/15 35/44/15 
f 17/45/15 36/46/16 35/44/15 
f 17/45/15 18/47/16 36/46/16 
f 18/47/16 37/48/17 36/46/16 
f 18/47/16 19/49/17 37/48/17 
f 19/49/17 38/50/18 37/48/17 
f 19/49/17 20/51/18 38/50/18 
f 20/51/18 39/52/19 38/50/18 
f 20/51/18 21/53/19 39/52/19 
f 21/53/19 40/54/20 39/52/19 
f 21/53/19 22/55/20 40/54/20 
f 22/55/20 41/56/21 40/54/20 
f 22/55/20 23/57/21 41/56/21 
f 23/57/21 42/58/22 41/56/21 
f 23/57/21 24/59/22 42/58/22 
f 24/59/22 43/60/23 42/58/22 
f 24/59/22 25/61/23 43/60/23 
f 25/61/23 44/62/24 43/60/23 
f 25/61/23 26/63/24 44/62/24 
f 26/63/24 45/64/25 44/62/24 
f 26/63/24 27/65/25 45/64/25 
f 27/65/25 29/66/8 45/64/25 
f 27/65/25 11/67/8 29/66/8 
s 1
f 46/68/26 29/69/26 28/70/26 
f 46/68/26 28/70/26 30/71/26 
f 46/68/26 30/71/26 31/72/26 
f 46/68/26 31/72/26 32/73/26 
f 46/68/26 32/73/26 33/74/26 
f 46/68/26 33/74/26 34/75/26 
f 46/68/26 34/75/26 35/76/26 
f 46/68/26 35/76/26 36/77/26 
f 46/68/26 36/77/26 37/78/26 
f 46/68/26 37/78/26 38/79/26 
f 46/68/26 38/79/26 39/80/26 
f 46/68/26 39/80/26 40/81/26 
f 46/68/26 40/81/26 41/82/26 
f 46/68/26 41/82/26 42/83/26 
f 46/68/26 42/83/26 43/84/26 
f 46/68/26 43/84/26 44/85/26 
f 46/68/26 44/85/26 45/86/26 
f 46/68/26 45/86/26 29/69/26 
# 72 faces

