# 3ds Max Wavefront OBJ Exporter v0.97b - (c)2007 guruware
# File Created: 15.06.2014 09:58:29

#
# object Center
#

v  -0.1000 0.4000 0.1000
v  -0.1000 0.4000 -0.1000
v  0.1000 0.4000 -0.1000
v  0.1000 0.4000 0.1000
v  -0.1000 0.6000 0.1000
v  0.1000 0.6000 0.1000
v  0.1000 0.6000 -0.1000
v  -0.1000 0.6000 -0.1000
# 8 vertices

vn 0.0000 -1.0000 -0.0000
vn 0.0000 1.0000 -0.0000
vn 0.0000 0.0000 1.0000
vn 1.0000 0.0000 -0.0000
vn 0.0000 0.0000 -1.0000
vn -1.0000 0.0000 -0.0000
# 6 vertex normals

vt 1.0000 0.0000 0.0000
vt 1.0000 1.0000 0.0000
vt 0.0000 1.0000 0.0000
vt 0.0000 0.0000 0.0000
# 4 texture coords

g Center
s 2
f 1/1/1 2/2/1 3/3/1 
f 3/3/1 4/4/1 1/1/1 
s 4
f 5/4/2 6/1/2 7/2/2 
f 7/2/2 8/3/2 5/4/2 
s 8
f 1/4/3 4/1/3 6/2/3 
f 6/2/3 5/3/3 1/4/3 
s 16
f 4/4/4 3/1/4 7/2/4 
f 7/2/4 6/3/4 4/4/4 
s 32
f 3/4/5 2/1/5 8/2/5 
f 8/2/5 7/3/5 3/4/5 
s 64
f 2/4/6 1/1/6 5/2/6 
f 5/2/6 8/3/6 2/4/6 
# 12 faces

#
# object TopP
#

v  0.0000 0.7000 -0.0000
v  -0.1000 0.6000 0.1000
v  0.1000 0.6000 0.1000
v  0.1000 0.6000 -0.1000
v  -0.1000 0.6000 -0.1000
v  0.0000 0.6000 -0.0000
# 6 vertices

vn 0.0000 0.7071 0.7071
vn 0.7071 0.7071 -0.0000
vn 0.0000 0.7071 -0.7071
vn -0.7071 0.7071 -0.0000
vn 0.0000 -1.0000 -0.0000
# 5 vertex normals

vt 0.5000 1.0000 0.0000
vt 0.0000 0.0000 0.0000
vt 1.0000 0.0000 0.0000
vt 0.0000 1.0000 0.0000
vt 0.5000 0.5000 0.0000
vt 1.0000 1.0000 0.0000
# 6 texture coords

g TopP
s 4
f 9/5/7 10/6/7 11/7/7 
s 2
f 9/5/8 11/6/8 12/7/8 
s 16
f 9/5/9 12/6/9 13/7/9 
s 32
f 9/5/10 13/6/10 10/7/10 
s 8
f 10/8/11 14/9/11 11/10/11 
f 11/10/11 14/9/11 12/7/11 
f 12/7/11 14/9/11 13/6/11 
f 13/6/11 14/9/11 10/8/11 
# 8 faces

#
# object RightP
#

v  0.2000 0.5000 -0.0000
v  0.1000 0.6000 0.1000
v  0.1000 0.4000 0.1000
v  0.1000 0.4000 -0.1000
v  0.1000 0.6000 -0.1000
v  0.1000 0.5000 -0.0000
# 6 vertices

vn 0.7071 -0.0000 0.7071
vn 0.7071 -0.7071 -0.0000
vn 0.7071 -0.0000 -0.7071
vn 0.7071 0.7071 -0.0000
vn -1.0000 0.0000 -0.0000
# 5 vertex normals

vt 0.5000 1.0000 0.0000
vt 0.0000 0.0000 0.0000
vt 1.0000 0.0000 0.0000
vt 0.0000 1.0000 0.0000
vt 0.5000 0.5000 0.0000
vt 1.0000 1.0000 0.0000
# 6 texture coords

g RightP
s 4
f 15/11/12 16/12/12 17/13/12 
s 2
f 15/11/13 17/12/13 18/13/13 
s 16
f 15/11/14 18/12/14 19/13/14 
s 32
f 15/11/15 19/12/15 16/13/15 
s 8
f 16/14/16 20/15/16 17/16/16 
f 17/16/16 20/15/16 18/13/16 
f 18/13/16 20/15/16 19/12/16 
f 19/12/16 20/15/16 16/14/16 
# 8 faces

#
# object LeftP
#

v  -0.2000 0.5000 -0.0000
v  -0.1000 0.4000 0.1000
v  -0.1000 0.6000 0.1000
v  -0.1000 0.6000 -0.1000
v  -0.1000 0.4000 -0.1000
v  -0.1000 0.5000 -0.0000
# 6 vertices

vn -0.7071 -0.0000 0.7071
vn -0.7071 0.7071 -0.0000
vn -0.7071 -0.0000 -0.7071
vn -0.7071 -0.7071 -0.0000
vn 1.0000 0.0000 -0.0000
# 5 vertex normals

vt 0.5000 1.0000 0.0000
vt 0.0000 0.0000 0.0000
vt 1.0000 0.0000 0.0000
vt 0.0000 1.0000 0.0000
vt 0.5000 0.5000 0.0000
vt 1.0000 1.0000 0.0000
# 6 texture coords

g LeftP
s 4
f 21/17/17 22/18/17 23/19/17 
s 2
f 21/17/18 23/18/18 24/19/18 
s 16
f 21/17/19 24/18/19 25/19/19 
s 32
f 21/17/20 25/18/20 22/19/20 
s 8
f 22/20/21 26/21/21 23/22/21 
f 23/22/21 26/21/21 24/19/21 
f 24/19/21 26/21/21 25/18/21 
f 25/18/21 26/21/21 22/20/21 
# 8 faces

#
# object BotP
#

v  -0.0000 0.3000 -0.0000
v  0.1000 0.4000 0.1000
v  -0.1000 0.4000 0.1000
v  -0.1000 0.4000 -0.1000
v  0.1000 0.4000 -0.1000
v  0.0000 0.4000 -0.0000
# 6 vertices

vn -0.0000 -0.7071 0.7071
vn -0.7071 -0.7071 -0.0000
vn -0.0000 -0.7071 -0.7071
vn 0.7071 -0.7071 -0.0000
vn 0.0000 1.0000 -0.0000
# 5 vertex normals

vt 0.5000 1.0000 0.0000
vt 0.0000 0.0000 0.0000
vt 1.0000 0.0000 0.0000
vt 0.0000 1.0000 0.0000
vt 0.5000 0.5000 0.0000
vt 1.0000 1.0000 0.0000
# 6 texture coords

g BotP
s 4
f 27/23/22 28/24/22 29/25/22 
s 2
f 27/23/23 29/24/23 30/25/23 
s 16
f 27/23/24 30/24/24 31/25/24 
s 32
f 27/23/25 31/24/25 28/25/25 
s 8
f 28/26/26 32/27/26 29/28/26 
f 29/28/26 32/27/26 30/25/26 
f 30/25/26 32/27/26 31/24/26 
f 31/24/26 32/27/26 28/26/26 
# 8 faces

#
# object FrontP
#

v  0.0000 0.5000 0.2000
v  -0.1000 0.4000 0.1000
v  0.1000 0.4000 0.1000
v  0.1000 0.6000 0.1000
v  -0.1000 0.6000 0.1000
v  0.0000 0.5000 0.1000
# 6 vertices

vn 0.0000 -0.7071 0.7071
vn 0.7071 -0.0000 0.7071
vn 0.0000 0.7071 0.7071
vn -0.7071 -0.0000 0.7071
vn 0.0000 0.0000 -1.0000
# 5 vertex normals

vt 0.5000 1.0000 0.0000
vt 0.0000 0.0000 0.0000
vt 1.0000 0.0000 0.0000
vt 0.0000 1.0000 0.0000
vt 0.5000 0.5000 0.0000
vt 1.0000 1.0000 0.0000
# 6 texture coords

g FrontP
s 4
f 33/29/27 34/30/27 35/31/27 
s 2
f 33/29/28 35/30/28 36/31/28 
s 16
f 33/29/29 36/30/29 37/31/29 
s 32
f 33/29/30 37/30/30 34/31/30 
s 8
f 34/32/31 38/33/31 35/34/31 
f 35/34/31 38/33/31 36/31/31 
f 36/31/31 38/33/31 37/30/31 
f 37/30/31 38/33/31 34/32/31 
# 8 faces

#
# object BackP
#

v  0.0000 0.5000 -0.2000
v  -0.1000 0.6000 -0.1000
v  0.1000 0.6000 -0.1000
v  0.1000 0.4000 -0.1000
v  -0.1000 0.4000 -0.1000
v  0.0000 0.5000 -0.1000
# 6 vertices

vn 0.0000 0.7071 -0.7071
vn 0.7071 -0.0000 -0.7071
vn 0.0000 -0.7071 -0.7071
vn -0.7071 -0.0000 -0.7071
vn 0.0000 0.0000 1.0000
# 5 vertex normals

vt 0.5000 1.0000 0.0000
vt 0.0000 0.0000 0.0000
vt 1.0000 0.0000 0.0000
vt 0.0000 1.0000 0.0000
vt 0.5000 0.5000 0.0000
vt 1.0000 1.0000 0.0000
# 6 texture coords

g BackP
s 4
f 39/35/32 40/36/32 41/37/32 
s 2
f 39/35/33 41/36/33 42/37/33 
s 16
f 39/35/34 42/36/34 43/37/34 
s 32
f 39/35/35 43/36/35 40/37/35 
s 8
f 40/38/36 44/39/36 41/40/36 
f 41/40/36 44/39/36 42/37/36 
f 42/37/36 44/39/36 43/36/36 
f 43/36/36 44/39/36 40/38/36 
# 8 faces

#
# object Right
#

v  0.1019 0.4000 0.1000
v  0.1019 0.4000 -0.1000
v  0.5019 0.4000 -0.1000
v  0.5019 0.4000 0.1000
v  0.1019 0.6000 0.1000
v  0.5019 0.6000 0.1000
v  0.5019 0.6000 -0.1000
v  0.1019 0.6000 -0.1000
# 8 vertices

vn 0.0000 -1.0000 -0.0000
vn 0.0000 1.0000 -0.0000
vn 0.0000 0.0000 1.0000
vn 1.0000 0.0000 -0.0000
vn 0.0000 0.0000 -1.0000
vn -1.0000 0.0000 -0.0000
# 6 vertex normals

vt 1.0000 0.0000 0.0000
vt 1.0000 1.0000 0.0000
vt 0.0000 1.0000 0.0000
vt 0.0000 0.0000 0.0000
# 4 texture coords

g Right
s 2
f 45/41/37 46/42/37 47/43/37 
f 47/43/37 48/44/37 45/41/37 
s 4
f 49/44/38 50/41/38 51/42/38 
f 51/42/38 52/43/38 49/44/38 
s 8
f 45/44/39 48/41/39 50/42/39 
f 50/42/39 49/43/39 45/44/39 
s 16
f 48/44/40 47/41/40 51/42/40 
f 51/42/40 50/43/40 48/44/40 
s 32
f 47/44/41 46/41/41 52/42/41 
f 52/42/41 51/43/41 47/44/41 
s 64
f 46/44/42 45/41/42 49/42/42 
f 49/42/42 52/43/42 46/44/42 
# 12 faces

#
# object Left
#

v  -0.5000 0.4000 0.1000
v  -0.5000 0.4000 -0.1000
v  -0.1000 0.4000 -0.1000
v  -0.1000 0.4000 0.1000
v  -0.5000 0.6000 0.1000
v  -0.1000 0.6000 0.1000
v  -0.1000 0.6000 -0.1000
v  -0.5000 0.6000 -0.1000
# 8 vertices

vn 0.0000 -1.0000 -0.0000
vn 0.0000 1.0000 -0.0000
vn 0.0000 0.0000 1.0000
vn 1.0000 0.0000 -0.0000
vn 0.0000 0.0000 -1.0000
vn -1.0000 0.0000 -0.0000
# 6 vertex normals

vt 1.0000 0.0000 0.0000
vt 1.0000 1.0000 0.0000
vt 0.0000 1.0000 0.0000
vt 0.0000 0.0000 0.0000
# 4 texture coords

g Left
s 2
f 53/45/43 54/46/43 55/47/43 
f 55/47/43 56/48/43 53/45/43 
s 4
f 57/48/44 58/45/44 59/46/44 
f 59/46/44 60/47/44 57/48/44 
s 8
f 53/48/45 56/45/45 58/46/45 
f 58/46/45 57/47/45 53/48/45 
s 16
f 56/48/46 55/45/46 59/46/46 
f 59/46/46 58/47/46 56/48/46 
s 32
f 55/48/47 54/45/47 60/46/47 
f 60/46/47 59/47/47 55/48/47 
s 64
f 54/48/48 53/45/48 57/46/48 
f 57/46/48 60/47/48 54/48/48 
# 12 faces

#
# object Top
#

v  -0.1000 1.0000 0.1000
v  -0.1000 1.0000 -0.1000
v  -0.1000 0.6000 -0.1000
v  -0.1000 0.6000 0.1000
v  0.1000 1.0000 0.1000
v  0.1000 0.6000 0.1000
v  0.1000 0.6000 -0.1000
v  0.1000 1.0000 -0.1000
# 8 vertices

vn -1.0000 0.0000 -0.0000
vn 1.0000 -0.0000 -0.0000
vn 0.0000 0.0000 1.0000
vn -0.0000 -1.0000 -0.0000
vn 0.0000 0.0000 -1.0000
vn 0.0000 1.0000 -0.0000
# 6 vertex normals

vt 1.0000 0.0000 0.0000
vt 1.0000 1.0000 0.0000
vt 0.0000 1.0000 0.0000
vt 0.0000 0.0000 0.0000
# 4 texture coords

g Top
s 2
f 61/49/49 62/50/49 63/51/49 
f 63/51/49 64/52/49 61/49/49 
s 4
f 65/52/50 66/49/50 67/50/50 
f 67/50/50 68/51/50 65/52/50 
s 8
f 61/52/51 64/49/51 66/50/51 
f 66/50/51 65/51/51 61/52/51 
s 16
f 64/52/52 63/49/52 67/50/52 
f 67/50/52 66/51/52 64/52/52 
s 32
f 63/52/53 62/49/53 68/50/53 
f 68/50/53 67/51/53 63/52/53 
s 64
f 62/52/54 61/49/54 65/50/54 
f 65/50/54 68/51/54 62/52/54 
# 12 faces

#
# object Bot
#

v  -0.1000 0.4000 0.1000
v  -0.1000 0.4000 -0.1000
v  -0.1000 0.0000 -0.1000
v  -0.1000 0.0000 0.1000
v  0.1000 0.4000 0.1000
v  0.1000 -0.0000 0.1000
v  0.1000 -0.0000 -0.1000
v  0.1000 0.4000 -0.1000
# 8 vertices

vn -1.0000 0.0000 -0.0000
vn 1.0000 -0.0000 -0.0000
vn 0.0000 0.0000 1.0000
vn -0.0000 -1.0000 -0.0000
vn 0.0000 0.0000 -1.0000
vn 0.0000 1.0000 -0.0000
# 6 vertex normals

vt 1.0000 0.0000 0.0000
vt 1.0000 1.0000 0.0000
vt 0.0000 1.0000 0.0000
vt 0.0000 0.0000 0.0000
# 4 texture coords

g Bot
s 2
f 69/53/55 70/54/55 71/55/55 
f 71/55/55 72/56/55 69/53/55 
s 4
f 73/56/56 74/53/56 75/54/56 
f 75/54/56 76/55/56 73/56/56 
s 8
f 69/56/57 72/53/57 74/54/57 
f 74/54/57 73/55/57 69/56/57 
s 16
f 72/56/58 71/53/58 75/54/58 
f 75/54/58 74/55/58 72/56/58 
s 32
f 71/56/59 70/53/59 76/54/59 
f 76/54/59 75/55/59 71/56/59 
s 64
f 70/56/60 69/53/60 73/54/60 
f 73/54/60 76/55/60 70/56/60 
# 12 faces

#
# object Back
#

v  0.1000 0.4000 -0.1000
v  -0.1000 0.4000 -0.1000
v  -0.1000 0.4000 -0.5000
v  0.1000 0.4000 -0.5000
v  0.1000 0.6000 -0.1000
v  0.1000 0.6000 -0.5000
v  -0.1000 0.6000 -0.5000
v  -0.1000 0.6000 -0.1000
# 8 vertices

vn 0.0000 -1.0000 -0.0000
vn 0.0000 1.0000 -0.0000
vn 1.0000 0.0000 -0.0000
vn -0.0000 0.0000 -1.0000
vn -1.0000 0.0000 0.0000
vn 0.0000 0.0000 1.0000
# 6 vertex normals

vt 1.0000 0.0000 0.0000
vt 1.0000 1.0000 0.0000
vt 0.0000 1.0000 0.0000
vt 0.0000 0.0000 0.0000
# 4 texture coords

g Back
s 2
f 77/57/61 78/58/61 79/59/61 
f 79/59/61 80/60/61 77/57/61 
s 4
f 81/60/62 82/57/62 83/58/62 
f 83/58/62 84/59/62 81/60/62 
s 8
f 77/60/63 80/57/63 82/58/63 
f 82/58/63 81/59/63 77/60/63 
s 16
f 80/60/64 79/57/64 83/58/64 
f 83/58/64 82/59/64 80/60/64 
s 32
f 79/60/65 78/57/65 84/58/65 
f 84/58/65 83/59/65 79/60/65 
s 64
f 78/60/66 77/57/66 81/58/66 
f 81/58/66 84/59/66 78/60/66 
# 12 faces

#
# object Front
#

v  0.1000 0.4000 0.5000
v  -0.1000 0.4000 0.5000
v  -0.1000 0.4000 0.1000
v  0.1000 0.4000 0.1000
v  0.1000 0.6000 0.5000
v  0.1000 0.6000 0.1000
v  -0.1000 0.6000 0.1000
v  -0.1000 0.6000 0.5000
# 8 vertices

vn 0.0000 -1.0000 -0.0000
vn 0.0000 1.0000 -0.0000
vn 1.0000 0.0000 -0.0000
vn -0.0000 0.0000 -1.0000
vn -1.0000 0.0000 0.0000
vn 0.0000 0.0000 1.0000
# 6 vertex normals

vt 1.0000 0.0000 0.0000
vt 1.0000 1.0000 0.0000
vt 0.0000 1.0000 0.0000
vt 0.0000 0.0000 0.0000
# 4 texture coords

g Front
s 2
f 85/61/67 86/62/67 87/63/67 
f 87/63/67 88/64/67 85/61/67 
s 4
f 89/64/68 90/61/68 91/62/68 
f 91/62/68 92/63/68 89/64/68 
s 8
f 85/64/69 88/61/69 90/62/69 
f 90/62/69 89/63/69 85/64/69 
s 16
f 88/64/70 87/61/70 91/62/70 
f 91/62/70 90/63/70 88/64/70 
s 32
f 87/64/71 86/61/71 92/62/71 
f 92/62/71 91/63/71 87/64/71 
s 64
f 86/64/72 85/61/72 89/62/72 
f 89/62/72 92/63/72 86/64/72 
# 12 faces

