# 3ds Max Wavefront OBJ Exporter v0.97b - (c)2007 guruware
# File Created: 15.06.2014 13:36:51

#
# object TopP
#

v  0.0000 0.7000 -0.0000
v  -0.1000 0.6000 0.1000
v  0.1000 0.6000 0.1000
v  0.1000 0.6000 -0.1000
v  -0.1000 0.6000 -0.1000
v  0.0000 0.6000 -0.0000
# 6 vertices

vn 0.0000 0.7071 0.7071
vn 0.7071 0.7071 -0.0000
vn 0.0000 0.7071 -0.7071
vn -0.7071 0.7071 -0.0000
vn 0.0000 -1.0000 -0.0000
# 5 vertex normals

vt 0.7497 0.4661 0.0000
vt 0.5343 0.0347 0.0000
vt 0.9670 0.0340 0.0000
vt 0.7681 0.5001 0.0000
vt 0.9837 0.0661 0.0000
vt 0.9841 0.9362 0.0000
vt 0.7502 0.5334 0.0000
vt 0.9677 0.9677 0.0000
vt 0.5322 0.9676 0.0000
vt 0.7337 0.5006 0.0000
vt 0.5158 0.9374 0.0000
vt 0.5161 0.0640 0.0000
vt 2.3176 -1.3889 0.0000
vt 2.8176 -1.8889 0.0000
vt 3.3176 -1.3889 0.0000
vt 3.3176 -2.3889 0.0000
vt 2.3176 -2.3889 0.0000
# 17 texture coords

g TopP
s 4
f 1/1/1 2/2/1 3/3/1 
s 2
f 1/4/2 3/5/2 4/6/2 
s 16
f 1/7/3 4/8/3 5/9/3 
s 32
f 1/10/4 5/11/4 2/12/4 
s 8
f 2/13/5 6/14/5 3/15/5 
f 3/15/5 6/14/5 4/16/5 
f 4/16/5 6/14/5 5/17/5 
f 5/17/5 6/14/5 2/13/5 
# 8 faces

#
# object RightP
#

v  0.2000 0.5000 -0.0000
v  0.1000 0.6000 0.1000
v  0.1000 0.4000 0.1000
v  0.1000 0.4000 -0.1000
v  0.1000 0.6000 -0.1000
v  0.1000 0.5000 -0.0000
# 6 vertices

vn 0.7071 -0.0000 0.7071
vn 0.7071 -0.7071 -0.0000
vn 0.7071 -0.0000 -0.7071
vn 0.7071 0.7071 -0.0000
vn -1.0000 0.0000 -0.0000
# 5 vertex normals

vt 0.7497 0.4661 0.0000
vt 0.5343 0.0347 0.0000
vt 0.9670 0.0340 0.0000
vt 0.7681 0.5001 0.0000
vt 0.9837 0.0661 0.0000
vt 0.9841 0.9362 0.0000
vt 0.7502 0.5334 0.0000
vt 0.9677 0.9677 0.0000
vt 0.5322 0.9676 0.0000
vt 0.7337 0.5006 0.0000
vt 0.5158 0.9374 0.0000
vt 0.5161 0.0640 0.0000
vt 2.3176 -1.3889 0.0000
vt 2.8176 -1.8889 0.0000
vt 3.3176 -1.3889 0.0000
vt 3.3176 -2.3889 0.0000
vt 2.3176 -2.3889 0.0000
# 17 texture coords

g RightP
s 4
f 7/18/6 8/19/6 9/20/6 
s 2
f 7/21/7 9/22/7 10/23/7 
s 16
f 7/24/8 10/25/8 11/26/8 
s 32
f 7/27/9 11/28/9 8/29/9 
s 8
f 8/30/10 12/31/10 9/32/10 
f 9/32/10 12/31/10 10/33/10 
f 10/33/10 12/31/10 11/34/10 
f 11/34/10 12/31/10 8/30/10 
# 8 faces

#
# object LeftP
#

v  -0.2000 0.5000 -0.0000
v  -0.1000 0.4000 0.1000
v  -0.1000 0.6000 0.1000
v  -0.1000 0.6000 -0.1000
v  -0.1000 0.4000 -0.1000
v  -0.1000 0.5000 -0.0000
# 6 vertices

vn -0.7071 -0.0000 0.7071
vn -0.7071 0.7071 -0.0000
vn -0.7071 -0.0000 -0.7071
vn -0.7071 -0.7071 -0.0000
vn 1.0000 0.0000 -0.0000
# 5 vertex normals

vt 0.7497 0.4661 0.0000
vt 0.5343 0.0347 0.0000
vt 0.9670 0.0340 0.0000
vt 0.7681 0.5001 0.0000
vt 0.9837 0.0661 0.0000
vt 0.9841 0.9362 0.0000
vt 0.7502 0.5334 0.0000
vt 0.9677 0.9677 0.0000
vt 0.5322 0.9676 0.0000
vt 0.7337 0.5006 0.0000
vt 0.5158 0.9374 0.0000
vt 0.5161 0.0640 0.0000
vt 2.3176 -1.3889 0.0000
vt 2.8176 -1.8889 0.0000
vt 3.3176 -1.3889 0.0000
vt 3.3176 -2.3889 0.0000
vt 2.3176 -2.3889 0.0000
# 17 texture coords

g LeftP
s 4
f 13/35/11 14/36/11 15/37/11 
s 2
f 13/38/12 15/39/12 16/40/12 
s 16
f 13/41/13 16/42/13 17/43/13 
s 32
f 13/44/14 17/45/14 14/46/14 
s 8
f 14/47/15 18/48/15 15/49/15 
f 15/49/15 18/48/15 16/50/15 
f 16/50/15 18/48/15 17/51/15 
f 17/51/15 18/48/15 14/47/15 
# 8 faces

#
# object BotP
#

v  -0.0000 0.3000 -0.0000
v  0.1000 0.4000 0.1000
v  -0.1000 0.4000 0.1000
v  -0.1000 0.4000 -0.1000
v  0.1000 0.4000 -0.1000
v  0.0000 0.4000 -0.0000
# 6 vertices

vn -0.0000 -0.7071 0.7071
vn -0.7071 -0.7071 -0.0000
vn -0.0000 -0.7071 -0.7071
vn 0.7071 -0.7071 -0.0000
vn 0.0000 1.0000 -0.0000
# 5 vertex normals

vt 0.7497 0.4661 0.0000
vt 0.5343 0.0347 0.0000
vt 0.9670 0.0340 0.0000
vt 0.7681 0.5001 0.0000
vt 0.9837 0.0661 0.0000
vt 0.9841 0.9362 0.0000
vt 0.7502 0.5334 0.0000
vt 0.9677 0.9677 0.0000
vt 0.5322 0.9676 0.0000
vt 0.7337 0.5006 0.0000
vt 0.5158 0.9374 0.0000
vt 0.5161 0.0640 0.0000
vt 2.3176 -1.3889 0.0000
vt 2.8176 -1.8889 0.0000
vt 3.3176 -1.3889 0.0000
vt 3.3176 -2.3889 0.0000
vt 2.3176 -2.3889 0.0000
# 17 texture coords

g BotP
s 4
f 19/52/16 20/53/16 21/54/16 
s 2
f 19/55/17 21/56/17 22/57/17 
s 16
f 19/58/18 22/59/18 23/60/18 
s 32
f 19/61/19 23/62/19 20/63/19 
s 8
f 20/64/20 24/65/20 21/66/20 
f 21/66/20 24/65/20 22/67/20 
f 22/67/20 24/65/20 23/68/20 
f 23/68/20 24/65/20 20/64/20 
# 8 faces

#
# object FrontP
#

v  0.0000 0.5000 0.2000
v  -0.1000 0.4000 0.1000
v  0.1000 0.4000 0.1000
v  0.1000 0.6000 0.1000
v  -0.1000 0.6000 0.1000
v  0.0000 0.5000 0.1000
# 6 vertices

vn 0.0000 -0.7071 0.7071
vn 0.7071 -0.0000 0.7071
vn 0.0000 0.7071 0.7071
vn -0.7071 -0.0000 0.7071
vn 0.0000 0.0000 -1.0000
# 5 vertex normals

vt 0.7497 0.4661 0.0000
vt 0.5343 0.0347 0.0000
vt 0.9670 0.0340 0.0000
vt 0.7681 0.5001 0.0000
vt 0.9837 0.0661 0.0000
vt 0.9841 0.9362 0.0000
vt 0.7502 0.5334 0.0000
vt 0.9677 0.9677 0.0000
vt 0.5322 0.9676 0.0000
vt 0.7337 0.5006 0.0000
vt 0.5158 0.9374 0.0000
vt 0.5161 0.0640 0.0000
vt 2.3176 -1.3889 0.0000
vt 2.8176 -1.8889 0.0000
vt 3.3176 -1.3889 0.0000
vt 3.3176 -2.3889 0.0000
vt 2.3176 -2.3889 0.0000
# 17 texture coords

g FrontP
s 4
f 25/69/21 26/70/21 27/71/21 
s 2
f 25/72/22 27/73/22 28/74/22 
s 16
f 25/75/23 28/76/23 29/77/23 
s 32
f 25/78/24 29/79/24 26/80/24 
s 8
f 26/81/25 30/82/25 27/83/25 
f 27/83/25 30/82/25 28/84/25 
f 28/84/25 30/82/25 29/85/25 
f 29/85/25 30/82/25 26/81/25 
# 8 faces

#
# object BackP
#

v  0.0000 0.5000 -0.2000
v  -0.1000 0.6000 -0.1000
v  0.1000 0.6000 -0.1000
v  0.1000 0.4000 -0.1000
v  -0.1000 0.4000 -0.1000
v  0.0000 0.5000 -0.1000
# 6 vertices

vn 0.0000 0.7071 -0.7071
vn 0.7071 -0.0000 -0.7071
vn 0.0000 -0.7071 -0.7071
vn -0.7071 -0.0000 -0.7071
vn 0.0000 0.0000 1.0000
# 5 vertex normals

vt 0.7497 0.4661 0.0000
vt 0.5343 0.0347 0.0000
vt 0.9670 0.0340 0.0000
vt 0.7681 0.5001 0.0000
vt 0.9837 0.0661 0.0000
vt 0.9841 0.9362 0.0000
vt 0.7502 0.5334 0.0000
vt 0.9677 0.9677 0.0000
vt 0.5322 0.9676 0.0000
vt 0.7337 0.5006 0.0000
vt 0.5158 0.9374 0.0000
vt 0.5161 0.0640 0.0000
vt 2.3176 -1.3889 0.0000
vt 2.8176 -1.8889 0.0000
vt 3.3176 -1.3889 0.0000
vt 3.3176 -2.3889 0.0000
vt 2.3176 -2.3889 0.0000
# 17 texture coords

g BackP
s 4
f 31/86/26 32/87/26 33/88/26 
s 2
f 31/89/27 33/90/27 34/91/27 
s 16
f 31/92/28 34/93/28 35/94/28 
s 32
f 31/95/29 35/96/29 32/97/29 
s 8
f 32/98/30 36/99/30 33/100/30 
f 33/100/30 36/99/30 34/101/30 
f 34/101/30 36/99/30 35/102/30 
f 35/102/30 36/99/30 32/98/30 
# 8 faces

#
# object Right
#

v  0.1019 0.4000 0.1000
v  0.1019 0.4000 -0.1000
v  0.5019 0.4000 -0.1000
v  0.5019 0.4000 0.1000
v  0.1019 0.6000 0.1000
v  0.5019 0.6000 0.1000
v  0.5019 0.6000 -0.1000
v  0.1019 0.6000 -0.1000
# 8 vertices

vn 0.0000 -1.0000 -0.0000
vn 0.0000 1.0000 -0.0000
vn 0.0000 0.0000 1.0000
vn 1.0000 0.0000 -0.0000
vn 0.0000 0.0000 -1.0000
vn -1.0000 0.0000 -0.0000
# 6 vertex normals

vt 0.3750 0.0000 0.0000
vt 0.3750 1.0000 0.0000
vt 0.2500 1.0000 0.0000
vt 0.2500 0.0000 0.0000
vt 0.0000 -0.0016 0.0000
vt 0.1250 0.0000 0.0000
vt 0.1250 1.0000 0.0000
vt 0.0000 1.0000 0.0000
vt 0.7353 0.4707 0.0000
vt 0.7651 0.4702 0.0000
vt 0.7653 0.5305 0.0000
vt 0.7351 0.5301 0.0000
vt 0.5000 0.0000 0.0000
vt 0.5000 1.0000 0.0000
# 14 texture coords

g Right
s 2
f 37/103/31 38/104/31 39/105/31 
f 39/105/31 40/106/31 37/103/31 
s 4
f 41/107/32 42/108/32 43/109/32 
f 43/109/32 44/110/32 41/107/32 
s 8
f 37/108/33 40/106/33 42/105/33 
f 42/105/33 41/109/33 37/108/33 
s 16
f 40/111/34 39/112/34 43/113/34 
f 43/113/34 42/114/34 40/111/34 
s 32
f 39/103/35 38/115/35 44/116/35 
f 44/116/35 43/104/35 39/103/35 
s 64
f 38/111/36 37/112/36 41/113/36 
f 41/113/36 44/114/36 38/111/36 
# 12 faces

#
# object Left
#

v  -0.5000 0.4000 0.1000
v  -0.5000 0.4000 -0.1000
v  -0.1000 0.4000 -0.1000
v  -0.1000 0.4000 0.1000
v  -0.5000 0.6000 0.1000
v  -0.1000 0.6000 0.1000
v  -0.1000 0.6000 -0.1000
v  -0.5000 0.6000 -0.1000
# 8 vertices

vn 0.0000 -1.0000 -0.0000
vn 0.0000 1.0000 -0.0000
vn 0.0000 0.0000 1.0000
vn 1.0000 0.0000 -0.0000
vn 0.0000 0.0000 -1.0000
vn -1.0000 0.0000 -0.0000
# 6 vertex normals

vt 0.3750 0.0000 0.0000
vt 0.3750 1.0000 0.0000
vt 0.2500 1.0000 0.0000
vt 0.2500 0.0000 0.0000
vt 0.0000 -0.0016 0.0000
vt 0.1250 0.0000 0.0000
vt 0.1250 1.0000 0.0000
vt 0.0000 1.0000 0.0000
vt 0.7353 0.4707 0.0000
vt 0.7651 0.4702 0.0000
vt 0.7653 0.5305 0.0000
vt 0.7351 0.5301 0.0000
vt 0.5000 0.0000 0.0000
vt 0.5000 1.0000 0.0000
# 14 texture coords

g Left
s 2
f 45/117/37 46/118/37 47/119/37 
f 47/119/37 48/120/37 45/117/37 
s 4
f 49/121/38 50/122/38 51/123/38 
f 51/123/38 52/124/38 49/121/38 
s 8
f 45/122/39 48/120/39 50/119/39 
f 50/119/39 49/123/39 45/122/39 
s 16
f 48/125/40 47/126/40 51/127/40 
f 51/127/40 50/128/40 48/125/40 
s 32
f 47/117/41 46/129/41 52/130/41 
f 52/130/41 51/118/41 47/117/41 
s 64
f 46/125/42 45/126/42 49/127/42 
f 49/127/42 52/128/42 46/125/42 
# 12 faces

#
# object Top
#

v  -0.1000 1.0000 0.1000
v  -0.1000 1.0000 -0.1000
v  -0.1000 0.6000 -0.1000
v  -0.1000 0.6000 0.1000
v  0.1000 1.0000 0.1000
v  0.1000 0.6000 0.1000
v  0.1000 0.6000 -0.1000
v  0.1000 1.0000 -0.1000
# 8 vertices

vn -1.0000 0.0000 -0.0000
vn 1.0000 -0.0000 -0.0000
vn 0.0000 0.0000 1.0000
vn -0.0000 -1.0000 -0.0000
vn 0.0000 0.0000 -1.0000
vn 0.0000 1.0000 -0.0000
# 6 vertex normals

vt 0.3750 0.0000 0.0000
vt 0.3750 1.0000 0.0000
vt 0.2500 1.0000 0.0000
vt 0.2500 0.0000 0.0000
vt 0.0000 -0.0016 0.0000
vt 0.1250 0.0000 0.0000
vt 0.1250 1.0000 0.0000
vt 0.0000 1.0000 0.0000
vt 0.7353 0.4707 0.0000
vt 0.7651 0.4702 0.0000
vt 0.7653 0.5305 0.0000
vt 0.7351 0.5301 0.0000
vt 0.5000 0.0000 0.0000
vt 0.5000 1.0000 0.0000
# 14 texture coords

g Top
s 2
f 53/131/43 54/132/43 55/133/43 
f 55/133/43 56/134/43 53/131/43 
s 4
f 57/135/44 58/136/44 59/137/44 
f 59/137/44 60/138/44 57/135/44 
s 8
f 53/136/45 56/134/45 58/133/45 
f 58/133/45 57/137/45 53/136/45 
s 16
f 56/139/46 55/140/46 59/141/46 
f 59/141/46 58/142/46 56/139/46 
s 32
f 55/131/47 54/143/47 60/144/47 
f 60/144/47 59/132/47 55/131/47 
s 64
f 54/139/48 53/140/48 57/141/48 
f 57/141/48 60/142/48 54/139/48 
# 12 faces

#
# object Bot
#

v  -0.1000 0.4000 0.1000
v  -0.1000 0.4000 -0.1000
v  -0.1000 0.0000 -0.1000
v  -0.1000 0.0000 0.1000
v  0.1000 0.4000 0.1000
v  0.1000 -0.0000 0.1000
v  0.1000 -0.0000 -0.1000
v  0.1000 0.4000 -0.1000
# 8 vertices

vn -1.0000 0.0000 -0.0000
vn 1.0000 -0.0000 -0.0000
vn 0.0000 0.0000 1.0000
vn -0.0000 -1.0000 -0.0000
vn 0.0000 0.0000 -1.0000
vn 0.0000 1.0000 -0.0000
# 6 vertex normals

vt 0.3750 0.0000 0.0000
vt 0.3750 1.0000 0.0000
vt 0.2500 1.0000 0.0000
vt 0.2500 0.0000 0.0000
vt 0.0000 -0.0016 0.0000
vt 0.1250 0.0000 0.0000
vt 0.1250 1.0000 0.0000
vt 0.0000 1.0000 0.0000
vt 0.7353 0.4707 0.0000
vt 0.7651 0.4702 0.0000
vt 0.7653 0.5305 0.0000
vt 0.7351 0.5301 0.0000
vt 0.5000 0.0000 0.0000
vt 0.5000 1.0000 0.0000
# 14 texture coords

g Bot
s 2
f 61/145/49 62/146/49 63/147/49 
f 63/147/49 64/148/49 61/145/49 
s 4
f 65/149/50 66/150/50 67/151/50 
f 67/151/50 68/152/50 65/149/50 
s 8
f 61/150/51 64/148/51 66/147/51 
f 66/147/51 65/151/51 61/150/51 
s 16
f 64/153/52 63/154/52 67/155/52 
f 67/155/52 66/156/52 64/153/52 
s 32
f 63/145/53 62/157/53 68/158/53 
f 68/158/53 67/146/53 63/145/53 
s 64
f 62/153/54 61/154/54 65/155/54 
f 65/155/54 68/156/54 62/153/54 
# 12 faces

#
# object Back
#

v  0.1000 0.4000 -0.1000
v  -0.1000 0.4000 -0.1000
v  -0.1000 0.4000 -0.5000
v  0.1000 0.4000 -0.5000
v  0.1000 0.6000 -0.1000
v  0.1000 0.6000 -0.5000
v  -0.1000 0.6000 -0.5000
v  -0.1000 0.6000 -0.1000
# 8 vertices

vn 0.0000 -1.0000 -0.0000
vn 0.0000 1.0000 -0.0000
vn 1.0000 0.0000 -0.0000
vn -0.0000 0.0000 -1.0000
vn -1.0000 0.0000 0.0000
vn 0.0000 0.0000 1.0000
# 6 vertex normals

vt 0.3750 0.0000 0.0000
vt 0.3750 1.0000 0.0000
vt 0.2500 1.0000 0.0000
vt 0.2500 0.0000 0.0000
vt 0.0000 -0.0016 0.0000
vt 0.1250 0.0000 0.0000
vt 0.1250 1.0000 0.0000
vt 0.0000 1.0000 0.0000
vt 0.7353 0.4707 0.0000
vt 0.7651 0.4702 0.0000
vt 0.7653 0.5305 0.0000
vt 0.7351 0.5301 0.0000
vt 0.5000 0.0000 0.0000
vt 0.5000 1.0000 0.0000
# 14 texture coords

g Back
s 2
f 69/159/55 70/160/55 71/161/55 
f 71/161/55 72/162/55 69/159/55 
s 4
f 73/163/56 74/164/56 75/165/56 
f 75/165/56 76/166/56 73/163/56 
s 8
f 69/164/57 72/162/57 74/161/57 
f 74/161/57 73/165/57 69/164/57 
s 16
f 72/167/58 71/168/58 75/169/58 
f 75/169/58 74/170/58 72/167/58 
s 32
f 71/159/59 70/171/59 76/172/59 
f 76/172/59 75/160/59 71/159/59 
s 64
f 70/167/60 69/168/60 73/169/60 
f 73/169/60 76/170/60 70/167/60 
# 12 faces

#
# object Front
#

v  0.1000 0.4000 0.5000
v  -0.1000 0.4000 0.5000
v  -0.1000 0.4000 0.1000
v  0.1000 0.4000 0.1000
v  0.1000 0.6000 0.5000
v  0.1000 0.6000 0.1000
v  -0.1000 0.6000 0.1000
v  -0.1000 0.6000 0.5000
# 8 vertices

vn 0.0000 -1.0000 -0.0000
vn 0.0000 1.0000 -0.0000
vn 1.0000 0.0000 -0.0000
vn -0.0000 0.0000 -1.0000
vn -1.0000 0.0000 0.0000
vn 0.0000 0.0000 1.0000
# 6 vertex normals

vt 0.3750 0.0000 0.0000
vt 0.3750 1.0000 0.0000
vt 0.2500 1.0000 0.0000
vt 0.2500 0.0000 0.0000
vt 0.0000 -0.0016 0.0000
vt 0.1250 0.0000 0.0000
vt 0.1250 1.0000 0.0000
vt 0.0000 1.0000 0.0000
vt 0.7353 0.4707 0.0000
vt 0.7651 0.4702 0.0000
vt 0.7653 0.5305 0.0000
vt 0.7351 0.5301 0.0000
vt 0.5000 0.0000 0.0000
vt 0.5000 1.0000 0.0000
# 14 texture coords

g Front
s 2
f 77/173/61 78/174/61 79/175/61 
f 79/175/61 80/176/61 77/173/61 
s 4
f 81/177/62 82/178/62 83/179/62 
f 83/179/62 84/180/62 81/177/62 
s 8
f 77/178/63 80/176/63 82/175/63 
f 82/175/63 81/179/63 77/178/63 
s 16
f 80/181/64 79/182/64 83/183/64 
f 83/183/64 82/184/64 80/181/64 
s 32
f 79/173/65 78/185/65 84/186/65 
f 84/186/65 83/174/65 79/173/65 
s 64
f 78/181/66 77/182/66 81/183/66 
f 81/183/66 84/184/66 78/181/66 
# 12 faces

