# 3ds Max Wavefront OBJ Exporter v0.97b - (c)2007 guruware
# File Created: 29.10.2013 21:27:57

#
# object Middle
#

v  0.5000 1.0000 -0.5000
v  0.2500 0.0000 -0.2500
v  0.7500 0.0000 -0.2500
v  0.7500 0.0000 -0.7500
v  0.2500 0.0000 -0.7500
v  0.5000 0.0000 -0.5000
# 6 vertices

vn 0.0000 0.2425 0.9701
vn 0.9701 0.2425 -0.0000
vn 0.0000 0.2425 -0.9701
vn -0.9701 0.2425 -0.0000
vn 0.0000 -1.0000 -0.0000
# 5 vertex normals

vt 0.5000 1.0000 0.0000
vt 0.0000 0.5000 0.0000
vt 1.0000 0.5000 0.0000
vt 0.0000 1.0000 0.0000
vt 0.5000 0.7500 0.0000
vt 1.0000 1.0000 0.0000
# 6 texture coords

g Middle
s 4
f 1/1/1 2/2/1 3/3/1 
s 2
f 1/1/2 3/2/2 4/3/2 
s 16
f 1/1/3 4/2/3 5/3/3 
s 32
f 1/1/4 5/2/4 2/3/4 
s 8
f 2/4/5 6/5/5 3/6/5 
f 3/6/5 6/5/5 4/3/5 
f 4/3/5 6/5/5 5/2/5 
f 5/2/5 6/5/5 2/4/5 
# 8 faces

#
# object TopRight
#

v  0.1220 0.5050 -0.1245
v  -0.0030 0.0050 0.0005
v  0.2470 0.0050 0.0005
v  0.2470 0.0050 -0.2495
v  -0.0030 0.0050 -0.2495
v  0.1220 0.0050 -0.1245
# 6 vertices

vn 0.0000 0.2425 0.9701
vn 0.9701 0.2425 -0.0000
vn 0.0000 0.2425 -0.9701
vn -0.9701 0.2425 -0.0000
vn 0.0000 -1.0000 -0.0000
# 5 vertex normals

vt 0.5000 0.5000 0.0000
vt 0.0000 0.0000 0.0000
vt 1.0000 0.0000 0.0000
vt 1.0000 0.5000 0.0000
vt 0.0000 0.5000 0.0000
vt 0.5000 0.2500 0.0000
# 6 texture coords

g TopRight
s 4
f 7/7/6 8/8/6 9/9/6 
s 2
f 7/7/7 9/10/7 10/11/7 
s 16
f 7/7/8 10/8/8 11/9/8 
s 32
f 7/7/9 11/10/9 8/11/9 
s 8
f 8/11/10 12/12/10 9/10/10 
f 9/10/10 12/12/10 10/9/10 
f 10/9/10 12/12/10 11/8/10 
f 11/8/10 12/12/10 8/11/10 
# 8 faces

#
# object BottemRight
#

v  0.8800 0.5000 -0.8800
v  0.7550 0.0000 -0.7550
v  1.0050 0.0000 -0.7550
v  1.0050 0.0000 -1.0050
v  0.7550 0.0000 -1.0050
v  0.8800 0.0000 -0.8800
# 6 vertices

vn 0.0000 0.2425 0.9701
vn 0.9701 0.2425 -0.0000
vn 0.0000 0.2425 -0.9701
vn -0.9701 0.2425 -0.0000
vn 0.0000 -1.0000 -0.0000
# 5 vertex normals

vt 0.5000 0.5000 0.0000
vt 0.0000 0.0000 0.0000
vt 1.0000 0.0000 0.0000
vt 0.0000 0.5000 0.0000
vt 0.5000 0.2500 0.0000
vt 1.0000 0.5000 0.0000
# 6 texture coords

g BottemRight
s 4
f 13/13/11 14/14/11 15/15/11 
s 2
f 13/13/12 15/14/12 16/15/12 
s 16
f 13/13/13 16/14/13 17/15/13 
s 32
f 13/13/14 17/14/14 14/15/14 
s 8
f 14/16/15 18/17/15 15/18/15 
f 15/18/15 18/17/15 16/15/15 
f 16/15/15 18/17/15 17/14/15 
f 17/14/15 18/17/15 14/16/15 
# 8 faces

#
# object BottemLeft
#

v  0.1300 0.5100 -0.8700
v  0.0050 0.0100 -0.7450
v  0.2550 0.0100 -0.7450
v  0.2550 0.0100 -0.9950
v  0.0050 0.0100 -0.9950
v  0.1300 0.0100 -0.8700
# 6 vertices

vn 0.0000 0.2425 0.9701
vn 0.9701 0.2425 -0.0000
vn 0.0000 0.2425 -0.9701
vn -0.9701 0.2425 -0.0000
vn 0.0000 -1.0000 -0.0000
# 5 vertex normals

vt 0.5000 0.5000 0.0000
vt 0.0000 0.0000 0.0000
vt 1.0000 0.0000 0.0000
vt 0.0000 0.5000 0.0000
vt 0.5000 0.2500 0.0000
vt 1.0000 0.5000 0.0000
# 6 texture coords

g BottemLeft
s 4
f 19/19/16 20/20/16 21/21/16 
s 2
f 19/19/17 21/20/17 22/21/17 
s 16
f 19/19/18 22/20/18 23/21/18 
s 32
f 19/19/19 23/20/19 20/21/19 
s 8
f 20/22/20 24/23/20 21/24/20 
f 21/24/20 24/23/20 22/21/20 
f 22/21/20 24/23/20 23/20/20 
f 23/20/20 24/23/20 20/22/20 
# 8 faces

#
# object topLeft
#

v  0.8800 0.5000 -0.1200
v  0.7550 0.0000 0.0050
v  1.0050 0.0000 0.0050
v  1.0050 0.0000 -0.2450
v  0.7550 0.0000 -0.2450
v  0.8800 0.0000 -0.1200
# 6 vertices

vn 0.0000 0.2425 0.9701
vn 0.9701 0.2425 -0.0000
vn 0.0000 0.2425 -0.9701
vn -0.9701 0.2425 -0.0000
vn 0.0000 -1.0000 -0.0000
# 5 vertex normals

vt 0.5000 0.5000 0.0000
vt 0.0000 0.0000 0.0000
vt 1.0000 0.0000 0.0000
vt 0.0000 0.5000 0.0000
vt 0.5000 0.2500 0.0000
vt 1.0000 0.5000 0.0000
# 6 texture coords

g topLeft
s 4
f 25/25/21 26/26/21 27/27/21 
s 2
f 25/25/22 27/26/22 28/27/22 
s 16
f 25/25/23 28/26/23 29/27/23 
s 32
f 25/25/24 29/26/24 26/27/24 
s 8
f 26/28/25 30/29/25 27/30/25 
f 27/30/25 30/29/25 28/27/25 
f 28/27/25 30/29/25 29/26/25 
f 29/26/25 30/29/25 26/28/25 
# 8 faces

